<?xml version="1.0" standalone="no"?>
<!DOCTYPE svg PUBLIC "-//W3C//DTD SVG 20010904//EN"
 "http://www.w3.org/TR/2001/REC-SVG-20010904/DTD/svg10.dtd">
<svg version="1.0" xmlns="http://www.w3.org/2000/svg"
 width="441.000000pt" height="215.000000pt" viewBox="0 0 441.000000 215.000000"
 preserveAspectRatio="xMidYMid meet">

<g transform="translate(0.000000,215.000000) scale(0.100000,-0.100000)"
fill="#000000" stroke="none">
<path d="M1016 1467 c-66 -139 -126 -264 -133 -279 l-14 -28 60 0 60 0 74 153
75 152 73 -152 74 -153 58 0 c31 0 57 3 57 6 0 7 -251 537 -259 546 -3 4 -60
-106 -125 -245z"/>
<path d="M220 1430 l0 -270 55 0 54 0 3 108 3 107 158 3 157 3 0 -111 0 -110
55 0 55 0 0 270 0 270 -55 0 -55 0 0 -110 0 -110 -160 0 -160 0 0 110 0 110
-55 0 -55 0 0 -270z"/>
<path d="M1510 1430 l0 -270 55 0 55 0 0 215 0 215 141 0 c77 0 149 -5 160
-10 23 -13 26 -62 3 -84 -12 -12 -38 -16 -115 -16 -54 0 -99 -3 -99 -7 1 -5
38 -75 84 -158 l83 -150 51 -3 c29 -2 52 -1 52 2 0 3 -25 50 -55 104 -30 54
-55 102 -55 105 0 4 16 7 36 7 115 0 184 151 114 250 -44 61 -80 70 -307 70
l-203 0 0 -270z"/>
<path d="M2160 1430 l0 -270 205 0 c233 0 263 8 305 74 26 43 29 120 6 165
-15 27 -15 34 -2 59 15 28 19 56 17 109 -1 43 -60 109 -109 123 -21 5 -124 10
-229 10 l-193 0 0 -270z m412 143 c24 -21 23 -48 -2 -73 -16 -16 -33 -20 -95
-20 l-75 0 0 -49 0 -49 81 -4 c84 -3 109 -17 109 -59 0 -42 -24 -49 -176 -49
l-144 0 0 160 0 160 142 0 c118 0 145 -3 160 -17z"/>
<path d="M2810 1695 c0 -3 47 -68 105 -145 l105 -139 0 -126 0 -125 55 0 55 0
0 128 0 129 82 109 c45 60 92 124 106 142 l24 32 -65 0 -66 0 -62 -82 c-34
-46 -65 -87 -70 -92 -4 -4 -38 33 -75 83 l-69 91 -62 0 c-35 0 -63 -2 -63 -5z"/>
<path d="M1456 1020 c-13 -30 -72 -152 -130 -270 -58 -118 -106 -218 -106
-222 0 -5 26 -8 58 -8 l57 0 58 123 c32 67 66 133 76 147 l19 24 72 -147 71
-147 59 0 59 0 -24 53 c-13 28 -73 153 -134 277 l-110 224 -25 -54z"/>
<path d="M527 1036 c-56 -15 -110 -56 -152 -115 -25 -36 -30 -54 -33 -116 -5
-92 9 -136 61 -193 76 -81 93 -86 330 -92 l208 -5 27 -50 c27 -49 28 -50 80
-53 28 -2 52 0 52 4 0 9 -189 353 -212 387 l-19 27 -135 0 -134 0 0 -45 0 -45
105 0 105 0 30 -47 c17 -26 30 -51 30 -55 0 -4 -71 -8 -159 -8 -147 0 -160 2
-191 23 -55 37 -75 72 -75 131 0 43 6 60 29 90 46 61 69 66 301 66 l205 0 25
50 c14 27 25 52 25 55 0 12 -456 3 -503 -9z"/>
<path d="M1860 785 l0 -265 55 0 54 0 3 153 3 152 78 -152 78 -153 47 0 48 0
63 129 c36 71 73 140 82 152 18 23 19 21 19 -128 l0 -153 50 0 50 0 0 266 0
265 -52 -3 -53 -3 -70 -130 c-38 -72 -82 -151 -97 -176 -16 -25 -28 -54 -28
-64 0 -38 -25 2 -162 258 l-63 117 -52 0 -53 0 0 -265z"/>
<path d="M2600 785 l0 -265 270 0 270 0 0 55 0 55 -215 0 -215 0 0 155 0 155
215 0 215 0 0 55 0 55 -270 0 -270 0 0 -265z"/>
<path d="M3626 1040 c-62 -19 -106 -83 -106 -155 0 -61 19 -95 68 -123 36 -20
54 -22 172 -22 135 0 162 -6 180 -41 9 -16 8 -26 -5 -45 l-15 -24 -335 0 -335
0 0 -55 0 -56 349 3 c337 3 351 4 378 24 46 35 73 82 73 131 0 60 -22 97 -73
128 -41 23 -52 25 -180 25 -124 0 -139 2 -157 20 -24 24 -25 38 -4 68 15 21
21 22 190 22 l174 0 0 55 0 55 -172 -1 c-95 0 -186 -5 -202 -9z"/>
<path d="M2840 785 l0 -45 150 0 150 0 0 45 0 45 -150 0 -150 0 0 -45z"/>
</g>
</svg>
