<?xml version="1.0" standalone="no"?>
<!DOCTYPE svg PUBLIC "-//W3C//DTD SVG 20010904//EN"
 "http://www.w3.org/TR/2001/REC-SVG-20010904/DTD/svg10.dtd">
<svg version="1.0" xmlns="http://www.w3.org/2000/svg"
 width="873.000000pt" height="248.000000pt" viewBox="0 0 873.000000 248.000000"
 preserveAspectRatio="xMidYMid meet">

<g transform="translate(0.000000,248.000000) scale(0.100000,-0.100000)"
fill="#000000" stroke="none">
<path d="M70 1850 l0 -520 105 0 105 0 0 210 0 209 349 3 349 3 44 31 c23 18
53 51 65 75 l23 42 0 -286 0 -287 105 0 105 0 0 520 0 520 -105 0 -105 0 0
-205 0 -205 -415 0 -415 0 0 205 0 205 -105 0 -105 0 0 -520z"/>
<path d="M1533 2333 c9 -51 54 -113 102 -140 40 -23 41 -23 516 -23 474 0 476
0 518 23 51 26 97 87 107 140 l6 37 -627 0 -628 0 6 -37z"/>
<path d="M2990 2350 c0 -30 27 -91 53 -118 12 -13 39 -33 59 -43 34 -17 62
-19 346 -19 170 0 371 -3 446 -7 l138 -6 -4 -74 c-3 -59 -8 -77 -26 -95 l-23
-23 -494 -3 -495 -3 0 -314 0 -315 105 0 105 0 0 210 0 210 153 0 152 0 210
-210 210 -210 160 0 160 0 -210 210 -210 210 125 0 c99 0 133 4 165 19 51 23
101 79 114 128 6 21 11 135 11 256 l0 217 -625 0 c-622 0 -625 0 -625 -20z"/>
<path d="M4442 2268 l3 -103 523 -3 522 -2 0 -61 c0 -67 -17 -109 -52 -127
-17 -9 -149 -13 -508 -15 l-485 -2 -3 -312 -2 -313 630 0 630 0 0 218 c0 197
-2 220 -20 249 -10 17 -29 37 -41 43 -21 12 -21 12 9 30 46 28 52 62 52 291
l0 209 -630 0 -631 0 3 -102z m988 -533 c41 -21 60 -63 60 -135 l0 -60 -420 0
-420 0 0 98 c0 54 3 102 7 105 3 4 172 7 375 7 310 0 374 -2 398 -15z"/>
<path d="M5900 2267 l0 -102 266 -265 265 -265 -3 -152 -3 -153 102 0 103 0 0
153 0 152 265 265 265 265 0 102 0 103 -105 0 -105 0 0 -48 0 -47 -210 -210
-210 -210 -210 210 -210 210 0 47 0 48 -105 0 -105 0 0 -103z"/>
<path d="M1530 1645 l0 -315 105 0 105 0 0 210 0 210 415 0 415 0 0 -210 0
-210 105 0 105 0 0 315 0 315 -625 0 -625 0 0 -315z"/>
<path d="M1080 1093 l0 -106 548 6 c544 7 547 7 592 30 52 27 98 87 107 140
l6 37 -627 0 -626 0 0 -107z"/>
<path d="M2543 1163 c9 -51 54 -113 102 -140 40 -23 41 -23 516 -23 474 0 476
0 518 23 51 26 97 87 107 140 l6 37 -627 0 -628 0 6 -37z"/>
<path d="M4103 1095 l107 -104 0 -416 0 -415 100 0 100 0 0 208 c0 114 3 251
7 304 l6 97 153 -147 153 -147 1 -157 0 -158 105 0 105 0 0 158 0 157 155 155
155 155 0 -313 0 -312 105 0 105 0 0 417 0 418 102 102 103 103 -156 0 -155 0
-35 -36 c-18 -20 -137 -135 -262 -257 l-228 -221 -257 257 -257 257 -160 0
-160 -1 108 -104z"/>
<path d="M5875 1168 c11 -53 46 -106 88 -135 l40 -28 483 -3 c461 -2 485 -2
521 17 21 10 48 30 60 43 26 27 53 88 53 118 0 20 -3 20 -626 20 l-626 0 7
-32z"/>
<path d="M7330 890 l0 -310 520 0 520 0 0 -105 0 -105 -421 0 c-270 0 -436 -4
-463 -11 -79 -20 -155 -107 -156 -176 l0 -23 625 0 625 0 0 315 0 315 -520 0
-520 0 0 98 0 99 443 7 c434 6 443 7 487 29 52 27 98 87 107 140 l6 37 -627 0
-626 0 0 -310z"/>
<path d="M1080 558 c0 -257 6 -283 66 -340 63 -59 54 -58 644 -58 l540 0 0
315 0 315 -416 0 -417 0 6 -42 c7 -55 52 -116 106 -145 43 -22 53 -23 278 -23
l233 0 0 -105 0 -106 -390 3 -389 3 -23 23 c-22 22 -23 30 -26 207 l-3 185
-105 0 -104 0 0 -232z"/>
<path d="M2540 475 l0 -315 105 0 105 0 0 210 0 210 415 0 415 0 0 -210 0
-210 105 0 105 0 0 315 0 315 -625 0 -625 0 0 -315z"/>
<path d="M5870 778 c0 -35 25 -92 53 -125 65 -74 56 -73 578 -73 l466 0 44 23
c54 29 99 90 106 145 l6 42 -627 0 c-494 0 -626 -3 -626 -12z"/>
<path d="M5870 356 c0 -30 32 -102 58 -130 15 -16 45 -37 67 -47 37 -17 73
-19 500 -19 425 0 463 2 500 19 72 33 125 104 125 166 l0 25 -625 0 c-523 0
-625 -2 -625 -14z"/>
</g>
</svg>
