<?xml version="1.0" standalone="no"?>
<!DOCTYPE svg PUBLIC "-//W3C//DTD SVG 20010904//EN"
 "http://www.w3.org/TR/2001/REC-SVG-20010904/DTD/svg10.dtd">
<svg version="1.0" xmlns="http://www.w3.org/2000/svg"
 width="609.000000pt" height="186.000000pt" viewBox="0 0 609.000000 186.000000"
 preserveAspectRatio="xMidYMid meet">

<g transform="translate(0.000000,186.000000) scale(0.100000,-0.100000)"
fill="#000000" stroke="none">
<path d="M5365 1501 c-51 -13 -108 -48 -147 -88 -140 -144 -97 -375 87 -471
41 -21 64 -26 125 -26 97 -1 163 28 224 95 167 186 46 479 -203 495 -31 2 -69
0 -86 -5z m194 -67 c87 -47 131 -123 131 -226 -1 -271 -363 -356 -487 -114
-39 74 -38 161 2 235 16 29 45 66 65 82 77 64 196 74 289 23z"/>
<path d="M5320 1210 l0 -180 30 0 30 0 0 70 0 70 29 0 c25 0 34 -9 70 -70 37
-61 45 -70 71 -70 17 0 30 2 30 5 0 2 -20 37 -44 77 l-44 72 29 27 c23 21 29
36 29 69 0 23 -5 50 -11 62 -16 30 -71 48 -149 48 l-70 0 0 -180z m160 110
c43 -43 9 -100 -60 -100 l-40 0 0 60 0 60 40 0 c27 0 47 -7 60 -20z"/>
<path d="M305 1468 c16 -73 74 -141 135 -159 22 -6 203 -9 506 -7 l471 3 39
27 c48 34 80 81 89 131 l7 37 -627 0 -627 0 7 -32z"/>
<path d="M1760 980 l0 -520 105 0 105 0 0 520 0 520 -105 0 -105 0 0 -520z"/>
<path d="M2180 980 l0 -520 538 0 538 0 53 26 c59 30 100 82 111 144 l7 40
-523 0 -524 0 0 415 0 415 -100 0 -100 0 0 -520z"/>
<path d="M3630 1403 l0 -97 155 -156 c85 -86 155 -161 155 -166 0 -5 -70 -79
-155 -164 l-155 -155 0 -102 0 -103 105 0 105 0 0 53 0 52 210 210 210 210
210 -210 210 -210 0 -52 0 -53 100 0 100 0 0 108 0 107 -155 155 -155 155 155
155 155 155 0 103 0 102 -100 0 -100 0 0 -52 0 -53 -211 -204 -211 -204 -96
94 c-53 52 -148 143 -209 204 l-113 110 0 52 0 53 -105 0 -105 0 0 -97z"/>
<path d="M300 775 l0 -315 105 0 105 0 0 210 0 210 438 0 c403 0 440 2 478 19
68 31 124 111 124 177 0 12 -101 14 -625 14 l-625 0 0 -315z"/>
</g>
</svg>
